<svg width="18" height="18" viewBox="0 0 18 18" fill="none" xmlns="http://www.w3.org/2000/svg">
<path d="M9 6C10.625 6 12 7.375 12 9C12 10.6562 10.625 12 9 12C7.34375 12 6 10.6562 6 9C6 7.375 7.34375 6 9 6ZM16.6875 8.53125C17.0938 8.71875 17.0938 9.3125 16.6875 9.5L13.7188 10.9688L14.7812 14.125C14.9062 14.5312 14.5 14.9375 14.0938 14.8125L10.9375 13.75L9.46875 16.7188C9.28125 17.125 8.6875 17.125 8.5 16.7188L7.03125 13.75L3.875 14.8125C3.46875 14.9375 3.0625 14.5312 3.1875 14.125L4.25 10.9688L1.28125 9.5C0.875 9.3125 0.875 8.71875 1.28125 8.53125L4.25 7.0625L3.1875 3.90625C3.0625 3.5 3.46875 3.09375 3.875 3.21875L7.03125 4.28125L8.5 1.3125C8.6875 0.90625 9.28125 0.90625 9.46875 1.3125L10.9375 4.28125L14.0938 3.21875C14.5 3.09375 14.9062 3.5 14.7812 3.90625L13.7188 7.0625L16.6875 8.53125ZM11.8125 11.8438C13.375 10.2812 13.375 7.75 11.8125 6.1875C10.25 4.625 7.71875 4.625 6.15625 6.1875C4.59375 7.75 4.59375 10.2812 6.15625 11.8438C7.71875 13.4062 10.25 13.4062 11.8125 11.8438Z" fill="#F8F9FA"/>
</svg>
